<svg width="1440" height="900" viewBox="0 0 1440 900" fill="none" xmlns="http://www.w3.org/2000/svg">
    <path
        d="M871.878 1107.53H987.602L987.751 1107.31L1045.46 1020.88L1045.32 1020.66L1006.28 962.203H1045.17L1045.32 961.983L1102.74 875.995H1218.44L1218.59 875.774L1219.03 875.123H1333.86L1334.01 874.903L1391.73 788.474L1391.58 788.254L1334.96 703.463L1391.43 618.892H1507.13L1507.28 618.672L1564.99 532.243L1564.85 532.023L1507.13 445.594H1391.43L1333.86 359.386H1218.15L1196.42 326.838H1220.03L1220.18 326.617L1277.89 240.189L1277.74 239.969L1220.03 153.54H1115.72C1115.45 148.429 1110.57 144.356 1104.59 144.356C1098.62 144.356 1093.46 148.663 1093.46 153.98C1093.46 159.297 1098.45 163.605 1104.59 163.605C1110.74 163.605 1115.45 159.531 1115.72 154.421H1219.44L1276.71 240.189L1219.44 325.957H1195.83L1160.58 273.177H1044.88L987.31 186.969H877.656C877.396 184.405 874.913 182.395 871.883 182.395C868.678 182.395 866.083 184.639 866.083 187.409C866.083 190.18 868.678 192.424 871.883 192.424C874.913 192.424 877.401 190.41 877.656 187.85H986.727L1044 273.618L1009.05 325.957H954.97C954.71 323.392 952.227 321.383 949.197 321.383C945.992 321.383 943.398 323.626 943.398 326.397C943.398 329.168 945.992 331.411 949.197 331.411C952.227 331.411 954.715 329.397 954.97 326.838H1008.46L986.727 359.386H888.804C888.538 354.275 883.662 350.202 877.682 350.202C871.702 350.202 866.55 354.509 866.55 359.826C866.55 365.143 871.533 369.451 877.682 369.451C883.832 369.451 888.533 365.377 888.804 360.267H987.294L1044.57 446.035L1010.64 496.851H960.106C959.082 492.451 954.583 489.139 949.197 489.139C943.047 489.139 938.065 493.447 938.065 498.764C938.065 504.081 943.047 508.388 949.197 508.388C955.347 508.388 960.329 504.081 960.329 498.764C960.329 498.415 960.308 498.071 960.266 497.731H1010.05L988.318 530.275H987.528L987.379 530.495L944.055 595.372L944.204 595.592L987.528 660.469H1073.37L1101.86 703.133L1044.58 788.901H976.603L996.787 758.678L996.638 758.458L940.691 674.676C942.575 673.846 943.865 672.162 943.865 670.208C943.865 667.437 941.27 665.194 938.065 665.194C934.86 665.194 932.266 667.437 932.266 670.208C932.266 672.979 934.86 675.222 938.065 675.222C938.649 675.222 939.206 675.144 939.736 675.007L995.609 758.674L975.425 788.896H930.032L872.461 702.688H871.617L871.761 702.477L871.22 702.206L928.175 616.915L928.026 616.695L872.222 533.129L872.61 533.321L930.032 447.333H981.532C981.792 449.897 984.275 451.907 987.305 451.907C990.51 451.907 993.105 449.664 993.105 446.893C993.105 444.122 990.51 441.879 987.305 441.879C984.275 441.879 981.787 443.892 981.532 446.452H929.443L929.294 446.672L871.888 532.633L870.45 530.482L848.701 497.91L868.959 467.573L868.811 467.353L814.498 386.021C816.636 385.282 818.149 383.48 818.149 381.365C818.149 378.594 815.554 376.351 812.349 376.351C809.144 376.351 806.55 378.594 806.55 381.365C806.55 384.136 809.144 386.379 812.349 386.379C812.742 386.379 813.124 386.342 813.495 386.278L867.781 467.573L848.112 497.03L812.736 444.053H654.388L676.398 411.092L691.424 433.594C690.178 434.516 689.382 435.878 689.382 437.41C689.382 440.181 691.976 442.424 695.181 442.424C698.386 442.424 700.981 440.181 700.981 437.41C700.981 434.639 698.386 432.396 695.181 432.396C694.115 432.396 693.117 432.648 692.258 433.084L676.987 410.216L692.284 387.31C693.138 387.737 694.125 387.989 695.186 387.989C698.391 387.989 700.986 385.746 700.986 382.975C700.986 380.204 698.391 377.961 695.186 377.961C691.982 377.961 689.387 380.204 689.387 382.975C689.387 384.512 690.188 385.888 691.451 386.805L676.408 409.335L640.242 355.175L697.516 269.407H801.238C801.504 274.517 806.38 278.591 812.36 278.591C818.34 278.591 823.492 274.283 823.492 268.966C823.492 263.649 818.509 259.342 812.36 259.342C806.21 259.342 801.509 263.415 801.238 268.526H697.516L640.258 182.781L697.495 97.0722L751.972 178.656C750.475 179.565 749.499 181.06 749.499 182.762C749.499 185.533 752.094 187.776 755.299 187.776C758.503 187.776 761.098 185.533 761.098 182.762C761.098 179.991 758.503 177.748 755.299 177.748C754.423 177.748 753.595 177.922 752.852 178.221L698.609 96.9942H806.581C806.841 99.5586 809.325 101.568 812.354 101.568C815.559 101.568 818.154 99.3246 818.154 96.5538C818.154 93.7829 815.559 91.5396 812.354 91.5396C809.325 91.5396 806.836 93.5535 806.581 96.1134H697.548L645.676 18.4377C648.748 16.7265 650.786 13.7401 650.786 10.3453C650.786 5.02837 645.803 0.720703 639.653 0.720703C633.504 0.720703 628.521 5.02837 628.521 10.3453C628.521 15.6622 633.504 19.9699 639.653 19.9699C641.511 19.9699 643.256 19.5754 644.795 18.8781L696.37 96.1134H582.295L582.147 96.3336L524.778 182.239L467.557 96.5538L522.199 14.7264C523.032 15.1301 523.992 15.3594 525.016 15.3594C528.221 15.3594 530.816 13.1162 530.816 10.3453C530.816 7.57444 528.221 5.33115 525.016 5.33115C521.812 5.33115 519.217 7.57444 519.217 10.3453C519.217 11.9142 520.05 13.3134 521.355 14.2355L466.385 96.5584L523.854 182.615L523.754 182.767H410.22L352.358 96.118H236.633L236.485 96.3382L178.771 182.767L181.573 186.964H178.782L178.633 187.185L120.919 273.613L177.174 357.858H63.0782L62.9296 358.078L8.24558 439.961C7.50274 439.663 6.675 439.488 5.7995 439.488C2.59465 439.488 0 441.732 0 444.503C0 447.273 2.59465 449.517 5.7995 449.517C9.00435 449.517 11.599 447.273 11.599 444.503C11.599 442.805 10.6227 441.305 9.12638 440.397L63.6618 358.73H177.322L123.604 439.177C122.803 438.819 121.901 438.612 120.935 438.612C117.73 438.612 115.136 440.856 115.136 443.626C115.136 446.397 117.73 448.641 120.935 448.641C124.14 448.641 126.735 446.397 126.735 443.626C126.735 442.007 125.843 440.566 124.458 439.649L178.124 359.28L178.628 360.033L178.967 359.863L235.482 444.493L178.787 529.39L178.209 530.262H63.37V530.917H63.0782L62.9296 531.138L5.21584 617.566L62.7863 703.775L5.21584 789.983L63.0782 876.632H172.791C173.306 878.944 175.656 880.692 178.484 880.692C181.689 880.692 184.284 878.449 184.284 875.678C184.284 872.907 181.689 870.664 178.484 870.664C175.28 870.664 172.685 872.907 172.685 875.678C172.685 875.706 172.685 875.729 172.685 875.756H63.6618L6.38847 789.988L63.6618 704.22H178.214L232.5 785.51C231.131 786.428 230.25 787.859 230.25 789.47C230.25 792.24 232.845 794.484 236.05 794.484C239.255 794.484 241.849 792.24 241.849 789.47C241.849 786.699 239.255 784.455 236.05 784.455C235.254 784.455 234.49 784.593 233.8 784.845L179.662 703.775L237.084 617.787L236.66 617.576V617.566L178.877 531.028L178.951 530.922L179.387 530.271H294.225L294.374 530.05L351.796 444.062H467.499L467.648 443.842L524.486 358.725H524.762L582.035 444.493L551.945 489.556H485.195C484.935 486.992 482.451 484.983 479.422 484.983C476.217 484.983 473.622 487.226 473.622 489.997C473.622 492.768 476.217 495.011 479.422 495.011C482.451 495.011 484.94 492.997 485.195 490.437H551.356L525.123 529.725L524.9 529.615L524.465 530.266H409.626L409.478 530.486L351.944 616.64L351.626 616.479L293.912 702.908L351.483 789.116L293.912 875.325L351.774 961.974H428.25L448.265 991.944L390.991 1077.71H276.439L219.166 991.944L270.979 914.351C272.476 914.998 274.158 915.36 275.94 915.36C282.09 915.36 287.073 911.052 287.073 905.735C287.073 900.418 282.09 896.111 275.94 896.111C269.791 896.111 264.808 900.418 264.808 905.735C264.808 909.194 266.92 912.227 270.088 913.924L217.988 991.948L275.85 1078.6H391.575L391.724 1078.38L449.437 991.948L429.423 961.978H467.499L467.648 961.758L524.926 875.985H525.181L525.038 876.201L567.603 939.944L525.038 1003.69L582.9 1090.34H698.625L698.773 1090.12L756.487 1003.69L756.339 1003.47L713.917 939.944L756.482 876.201L756.333 875.981L698.619 789.552H698.344L698.487 789.341L698.328 789.263V788.896H583.484L530.413 709.422C531.049 708.619 531.421 707.647 531.421 706.596C531.421 703.825 528.826 701.582 525.621 701.582C522.417 701.582 519.822 703.825 519.822 706.596C519.822 709.367 522.417 711.61 525.621 711.61C527.134 711.61 528.503 711.106 529.532 710.289L582.316 789.332L525.409 874.554L468.21 788.896L467.786 789.107L467.499 788.676H405.923L366.35 730.892C367.342 729.992 367.958 728.777 367.958 727.433C367.958 724.662 365.363 722.419 362.158 722.419C358.953 722.419 356.359 724.662 356.359 727.433C356.359 730.203 358.953 732.447 362.158 732.447C363.437 732.447 364.615 732.084 365.57 731.479L405.339 789.552H466.91L524.035 875.095H410.496L353.074 789.107L352.448 789.419L352.507 789.332L352.066 789.112L352.507 788.891L295.085 702.903L352.469 616.97L352.788 617.131L410.21 531.142H523.876L472.641 607.868C471.171 607.249 469.521 606.9 467.77 606.9C461.62 606.9 456.638 611.208 456.638 616.525C456.638 621.842 461.62 626.15 467.77 626.15C473.919 626.15 478.902 621.842 478.902 616.525C478.902 613.034 476.753 609.974 473.532 608.29L525.048 531.142L525.266 530.812L525.489 530.922L525.632 530.711L526.057 530.922L553.091 490.437H594.255L651.826 576.646H752.937L779.982 617.447C778.497 618.355 777.52 619.851 777.52 621.544C777.52 624.315 780.115 626.558 783.32 626.558C786.525 626.558 789.119 624.315 789.119 621.544C789.119 618.773 786.525 616.53 783.32 616.53C782.439 616.53 781.611 616.704 780.863 617.007L753.532 575.77H652.42L594.849 489.561H553.685L583.484 444.938H652.632L637.515 467.578L695.378 554.227H811.102L811.251 554.006L848.117 498.796L869.575 530.927L926.997 616.915L869.723 702.683H725.993C725.728 697.573 720.852 693.499 714.872 693.499C708.892 693.499 703.74 697.807 703.74 703.123C703.74 708.44 708.722 712.748 714.872 712.748C721.022 712.748 725.723 708.674 725.993 703.564H869.856L813.458 788.02H698.614V788.901H814.047L814.196 788.68L871.034 703.564H871.878L929.448 789.772H974.841L938.336 844.437H829.737C829.477 841.873 826.994 839.863 823.964 839.863C820.759 839.863 818.164 842.107 818.164 844.877C818.164 847.648 820.759 849.892 823.964 849.892C826.994 849.892 829.482 847.878 829.737 845.318H938.925L939.073 845.098L976.019 789.772H1045.16L1102.42 875.527L1102.01 875.32L1044.59 961.308H1005.7L987.607 934.215H911.949L875.507 879.642C876.998 878.733 877.979 877.238 877.979 875.536C877.979 872.765 875.385 870.522 872.18 870.522C868.975 870.522 866.38 872.765 866.38 875.536C866.38 878.307 868.975 880.55 872.18 880.55C873.055 880.55 873.883 880.376 874.626 880.077L910.776 934.21H871.888L871.74 934.43L814.026 1020.86L814.174 1021.08L871.888 1107.51L871.878 1107.53ZM696.582 790.438L640.184 874.894H527.086L583.484 790.438H696.582ZM568.192 940.83L582.9 962.854H698.625L698.773 962.634L713.333 940.83L755.314 1003.69L698.041 1089.46H583.489L526.216 1003.69L568.197 940.83H568.192ZM526.21 876.206L526.497 875.774H640.768L640.916 875.554L697.755 790.438H698.031L755.304 876.206L713.322 939.068L704.323 925.59C707.406 923.879 709.454 920.888 709.454 917.484C709.454 912.167 704.472 907.859 698.322 907.859C692.173 907.859 687.19 912.167 687.19 917.484C687.19 922.801 692.173 927.109 698.322 927.109C700.169 927.109 701.909 926.719 703.443 926.031L712.739 939.949L698.031 961.974H583.478L568.77 939.949L580.741 922.026C581.483 922.324 582.311 922.498 583.187 922.498C586.391 922.498 588.986 920.255 588.986 917.484C588.986 914.713 586.391 912.47 583.187 912.47C579.982 912.47 577.387 914.713 577.387 917.484C577.387 919.181 578.363 920.681 579.86 921.59L568.186 939.068L526.205 876.206H526.21ZM295.085 875.334L352.278 789.69L409.907 875.99H523.743L466.905 961.102H428.829L394.18 909.217C395.576 908.3 396.478 906.855 396.478 905.226C396.478 902.455 393.883 900.212 390.678 900.212C387.473 900.212 384.879 902.455 384.879 905.226C384.879 907.997 387.473 910.24 390.678 910.24C391.628 910.24 392.525 910.038 393.321 909.685L427.656 961.097H352.358L295.085 875.329V875.334ZM178.214 531.807L235.487 617.576L178.214 703.344H63.6618L6.38847 617.576L63.6618 531.807H178.214ZM236.665 444.503L178.946 358.069L179.084 357.863H293.636L350.91 443.631L293.636 529.399H179.97L236.665 444.503ZM639.187 183.203L696.168 268.53H582.905L525.924 183.203H639.187ZM582.884 96.9942H696.338L639.356 182.322H525.903L582.884 96.9942ZM653.221 444.062H582.921L525.351 357.854H525.075L525.218 357.643L524.337 357.202L523.902 357.854H413.993C414.009 357.711 414.02 357.569 414.02 357.422C414.02 354.652 411.425 352.408 408.22 352.408C405.015 352.408 402.421 354.652 402.421 357.422C402.421 360.193 405.015 362.437 408.22 362.437C410.9 362.437 413.144 360.868 413.813 358.734H523.313L466.915 443.191H352.363L294.941 357.202L294.517 357.413L294.23 356.982H178.506L178.357 357.202L178.14 357.528L122.103 273.609L179.376 187.841H182.167L233.742 265.076C232.012 265.943 230.844 267.558 230.844 269.411C230.844 272.182 233.439 274.425 236.644 274.425C239.849 274.425 242.443 272.182 242.443 269.411C242.443 266.64 239.849 264.397 236.644 264.397C235.949 264.397 235.286 264.507 234.665 264.704L183.34 187.841H283.093C283.358 192.951 288.235 197.025 294.214 197.025C300.194 197.025 305.347 192.717 305.347 187.4C305.347 182.083 300.364 177.776 294.214 177.776C288.065 177.776 283.364 181.849 283.093 186.96H182.751L179.949 182.762L237.222 96.9942H351.774L409.048 182.762L357.049 260.631C355.414 259.814 353.52 259.346 351.498 259.346C345.349 259.346 340.366 263.654 340.366 268.971C340.366 274.288 345.349 278.595 351.498 278.595C357.648 278.595 362.631 274.288 362.631 268.971C362.631 265.952 361.023 263.259 358.508 261.493L410.496 183.638H523.17L465.897 269.407H496.581C496.841 271.971 499.325 273.98 502.354 273.98C505.559 273.98 508.154 271.737 508.154 268.966C508.154 266.195 505.559 263.952 502.354 263.952C499.325 263.952 496.836 265.966 496.581 268.526H467.658L524.343 183.638H525.022L582.295 269.407H582.316L582.465 269.627L582.905 269.407H696.338L639.065 355.175L675.819 410.216L653.221 444.058V444.062ZM847.528 497.92L810.513 553.35H695.961L638.688 467.582L653.805 444.943H812.153L847.528 497.92ZM1102.89 702.912L1074.5 660.409L1074.62 660.244L1103.25 617.36H1117.04L1145.75 663.795H1190.56L1217.05 703.458L1160.28 788.469L1160.43 788.69L1218 874.903L1217.86 875.109H1103.31L1046.03 789.341L1103.45 703.353L1103.03 703.142V703.133L1102.89 702.912ZM1218.14 705.101H1218.88L1275.13 789.346L1218.58 874.027L1161.45 788.474L1217.63 704.344L1218.14 705.101ZM1073.92 659.533L1045.76 617.365H1102.07L1073.92 659.533ZM945.228 595.372L987.438 532.165L988.032 532.464L988.902 531.156H1073.88L1116.76 595.372L1102.66 616.484H1043.99L1072.78 659.588H988.117L945.234 595.372H945.228ZM1194.66 325.952H1010.79L1045.45 274.054H1160.01L1194.67 325.952H1194.66ZM1195.25 326.833L1217.28 359.822L1160.01 445.59H1092.38L1056.51 496.846H1011.82L1045.61 446.25L1045.17 446.03L1045.61 445.81L988.186 359.822L1010.22 326.833H1195.26H1195.25ZM1390.26 445.59H1275.99L1275.84 445.81L1218.42 531.798H1150.24C1149.98 529.234 1147.49 527.225 1144.46 527.225C1141.26 527.225 1138.67 529.468 1138.67 532.239C1138.67 535.01 1141.26 537.253 1144.46 537.253C1147.49 537.253 1149.98 535.239 1150.24 532.679H1217.54L1160.27 618.447L1160.42 618.667L1189.97 662.914H1146.36L1117.65 616.479H1103.84L1117.93 595.367L1117.79 595.147L1074.46 530.271H989.486L1011.22 497.727H1057.07L1092.94 446.471H1160.29V446.03L1160.73 446.25L1160.87 446.039L1161.3 446.25L1218.72 360.262H1333.27L1390.25 445.59H1390.26ZM1219.6 531.798L1276.58 446.471H1391.13L1448.41 532.239L1391.13 618.007H1276.58L1219.6 532.679H1327.79C1328.05 535.244 1330.54 537.253 1333.57 537.253C1336.77 537.253 1339.37 535.01 1339.37 532.239C1339.37 529.468 1336.77 527.225 1333.57 527.225C1330.54 527.225 1328.05 529.238 1327.79 531.798H1219.6ZM1506.55 618.011H1392.3L1449.58 532.243L1449.43 532.023L1392.3 446.475H1506.54L1563.82 532.243L1506.54 618.011H1506.55ZM1334.37 702.578L1334.01 702.041L1333.13 702.481L1333.78 703.458L1333.28 704.215H1219.47L1218.6 702.908H1218.59L1218.88 702.477L1218 702.036L1217.64 702.573L1191.74 663.79H1238.36C1238.91 668.657 1243.66 672.461 1249.44 672.461C1255.59 672.461 1260.57 668.153 1260.57 662.836C1260.57 657.519 1255.59 653.211 1249.44 653.211C1243.29 653.211 1238.31 657.519 1238.31 662.836C1238.31 662.859 1238.31 662.886 1238.31 662.909H1191.15L1161.46 618.443L1218.58 532.899L1276 618.883H1390.27L1334.38 702.573L1334.37 702.578ZM1219.61 874.238L1276.31 789.341L1276.16 789.121L1220.05 705.096H1333.87L1334.02 704.876L1334.38 704.339L1390.56 788.469L1333.29 874.238H1219.62H1219.61ZM1004.52 961.322H930.032L912.527 935.109H987.013L1004.52 961.322ZM872.461 1106.65L815.188 1020.88L872.461 935.109H911.349L929.443 962.203H1005.1L1044.29 1020.88L987.013 1106.65H872.461Z"
        fill="#2BD170" fill-opacity="0.12" />
</svg>