<svg width="11" height="11" viewBox="0 0 11 11" fill="none" xmlns="http://www.w3.org/2000/svg">
<path d="M9.87728 0H6.87665C6.3933 0 6.00146 0.391833 6.00146 0.875185V3.87582C6.00146 4.35917 6.3933 4.751 6.87665 4.751H9.87728C10.3606 4.751 10.7525 4.35917 10.7525 3.87582V0.875185C10.7525 0.391833 10.3606 0 9.87728 0Z" fill="black"/>
<path d="M10.7442 7.75799L8.99574 6.00957C8.83143 5.84584 8.60892 5.75391 8.37696 5.75391C8.145 5.75391 7.92249 5.84584 7.75818 6.00957L6.00976 7.75799C5.84592 7.92225 5.75391 8.14477 5.75391 8.37677C5.75391 8.60877 5.84592 8.8313 6.00976 8.99555L7.75818 10.744C7.92241 10.9079 8.14495 10.9999 8.37696 10.9999C8.60897 10.9999 8.83151 10.9079 8.99574 10.744L10.7442 8.99555C10.9081 8.83136 11.0002 8.60881 11.0002 8.37677C11.0002 8.14474 10.9081 7.92219 10.7442 7.75799Z" fill="black"/>
<path d="M3.87582 0H0.875185C0.391833 0 0 0.391833 0 0.875185V3.87582C0 4.35917 0.391833 4.751 0.875185 4.751H3.87582C4.35917 4.751 4.751 4.35917 4.751 3.87582V0.875185C4.751 0.391833 4.35917 0 3.87582 0Z" fill="black"/>
<path d="M3.87582 6.00122H0.875185C0.391833 6.00122 0 6.39305 0 6.87641V9.87704C0 10.3604 0.391833 10.7522 0.875185 10.7522H3.87582C4.35917 10.7522 4.751 10.3604 4.751 9.87704V6.87641C4.751 6.39305 4.35917 6.00122 3.87582 6.00122Z" fill="black"/>
</svg>
