<svg width="12" height="12" viewBox="0 0 12 12" fill="none" xmlns="http://www.w3.org/2000/svg">
<g clip-path="url(#clip0_718_76)">
<path d="M11.8666 4.38332L8.63145 1.77868C8.50085 1.67352 8.31471 1.67357 8.18412 1.77868L7.77246 2.11007L9.90584 3.82768C10.1594 4.0318 10.3048 4.33558 10.3048 4.66112V9.94337C10.3048 10.0684 10.2831 10.1884 10.2435 10.3H11.6429C11.8399 10.3 11.9996 10.1403 11.9996 9.94337V4.66115C11.9996 4.55317 11.9506 4.451 11.8666 4.38332Z" fill="black"/>
<path d="M9.45932 4.38332L6.22422 1.77868C6.09362 1.67352 5.90744 1.67357 5.77689 1.77868L5.36523 2.11009L7.49861 3.82768C7.75218 4.03185 7.89761 4.33562 7.89761 4.66115V9.9434C7.89761 10.0684 7.87586 10.1884 7.83627 10.3001H9.2357C9.43265 10.3001 9.59235 10.1404 9.59235 9.9434V4.66115C9.5923 4.55317 9.54339 4.45103 9.45932 4.38332Z" fill="black"/>
<path d="M7.05087 4.38332L3.81574 1.77868C3.68515 1.67352 3.49901 1.67357 3.36841 1.77868L0.133008 4.38332C0.0489141 4.451 0 4.55317 0 4.66115V9.9434C0 10.1404 0.159703 10.3001 0.356672 10.3001H2.57798C2.77495 10.3001 2.93466 10.1404 2.93466 9.9434V8.35182C2.93466 7.98941 3.2295 7.69457 3.59191 7.69457C3.95433 7.69457 4.2492 7.98941 4.2492 8.35182V9.9434C4.2492 10.1404 4.4089 10.3001 4.60587 10.3001H4.79606H5.17282H6.82718C7.02415 10.3001 7.18385 10.1404 7.18385 9.9434V4.66115C7.18387 4.55317 7.13496 4.45103 7.05087 4.38332Z" fill="black"/>
</g>
<defs>
<clipPath id="clip0_718_76">
<rect width="12" height="12" fill="white"/>
</clipPath>
</defs>
</svg>
