<svg width="10" height="11" viewBox="0 0 10 11" fill="none" xmlns="http://www.w3.org/2000/svg">
<path d="M6.55435 3.20613C6.14185 3.20613 5.80625 2.87053 5.80625 2.45803V0H1.98027C1.33205 0 0.804688 0.527366 0.804688 1.17558V9.76801C0.804688 10.4162 1.33205 10.9436 1.98027 10.9436H7.96504C8.61326 10.9436 9.14062 10.4162 9.14062 9.76801V3.20613H6.55435ZM2.55737 7.69471H4.1117C4.28877 7.69471 4.43232 7.83826 4.43232 8.01532C4.43232 8.19239 4.28877 8.33594 4.1117 8.33594H2.55737C2.38031 8.33594 2.23676 8.19239 2.23676 8.01532C2.23676 7.83826 2.38031 7.69471 2.55737 7.69471ZM2.23676 6.30539C2.23676 6.12832 2.38031 5.98478 2.55737 5.98478H7.2597C7.43676 5.98478 7.58031 6.12832 7.58031 6.30539C7.58031 6.48245 7.43676 6.626 7.2597 6.626H2.55737C2.38031 6.626 2.23676 6.48245 2.23676 6.30539ZM7.2597 4.27484C7.43676 4.27484 7.58031 4.41839 7.58031 4.59545C7.58031 4.77252 7.43676 4.91607 7.2597 4.91607H2.55737C2.38031 4.91607 2.23676 4.77252 2.23676 4.59545C2.23676 4.41839 2.38031 4.27484 2.55737 4.27484H7.2597Z" fill="black"/>
</svg>
