<svg width="11" height="11" viewBox="0 0 11 11" fill="none" xmlns="http://www.w3.org/2000/svg">
<g clip-path="url(#clip0_718_101)">
<path d="M6.56105 5.44242C8.06152 5.44242 9.28205 4.22168 9.28205 2.72121C9.28205 1.22074 8.06152 0 6.56105 0C5.06059 0 3.83984 1.22074 3.83984 2.72121C3.83984 4.22168 5.06059 5.44242 6.56105 5.44242ZM6.23879 1.1217V1.04779C6.23879 0.869687 6.38295 0.725527 6.56105 0.725527C6.73895 0.725527 6.88332 0.869687 6.88332 1.04779V1.12213C7.26682 1.20441 7.55535 1.54602 7.55535 1.95379C7.55535 2.13168 7.41098 2.27605 7.23309 2.27605C7.05498 2.27605 6.91082 2.13168 6.91082 1.95379C6.91082 1.84014 6.81822 1.74754 6.70457 1.74754H6.41561C6.30195 1.74754 6.20936 1.84014 6.20936 1.95379C6.20936 2.01889 6.24051 2.08076 6.29293 2.11943L6.56105 2.31795L7.21246 2.80006C7.42645 2.9584 7.55535 3.2117 7.55707 3.47811V3.48111C7.55857 3.70842 7.47156 3.92283 7.31172 4.08461C7.19313 4.20471 7.04488 4.28527 6.88332 4.31922V4.39463C6.88332 4.57273 6.73895 4.71689 6.56105 4.71689C6.38295 4.71689 6.23879 4.57273 6.23879 4.39463V4.32029C6.08152 4.28678 5.93693 4.20943 5.82006 4.09385C5.65828 3.93422 5.56848 3.72109 5.56719 3.49379C5.56611 3.3159 5.70941 3.17066 5.88731 3.16959H5.88945C6.06648 3.16959 6.21064 3.31268 6.21172 3.48992C6.21215 3.60115 6.30163 3.69488 6.41904 3.69488C6.59711 3.69381 6.53078 3.6942 6.70758 3.69316C6.82196 3.69226 6.91342 3.59943 6.91254 3.48541V3.4824C6.91211 3.41795 6.88096 3.3565 6.82896 3.31805L6.56105 3.11975L5.90943 2.63764C5.69373 2.47779 5.56482 2.22213 5.56482 1.95379C5.56482 1.54516 5.85422 1.20334 6.23879 1.1217Z" fill="black"/>
<path d="M2.15242 6.99089C2.06981 6.84768 1.88631 6.79786 1.74222 6.88098L0.226322 7.75604C0.082785 7.83912 0.0335429 8.0227 0.116408 8.16643L1.66573 10.8499C1.74866 10.9934 1.93214 11.0427 2.07593 10.9598L3.59183 10.0845C3.73558 10.0016 3.78463 9.81804 3.70174 9.67431L2.15242 6.99089Z" fill="black"/>
<path d="M10.8385 6.45517C10.6926 6.25257 10.4103 6.20681 10.2079 6.35269C9.59391 6.79505 8.41484 7.64455 8.32117 7.71222C8.27799 7.74896 8.23266 7.78226 8.18539 7.81169C7.99998 7.92835 7.78492 7.99066 7.56041 7.99066H6.01676C5.83887 7.99066 5.69449 7.8465 5.69449 7.66839C5.69449 7.49007 5.83908 7.34613 6.01676 7.34613H7.66762C7.91018 7.34613 8.10439 7.14417 8.0943 6.90119C8.08484 6.67066 7.88805 6.49191 7.6573 6.49191H6.40068C6.3156 6.40189 6.22236 6.31939 6.12246 6.2457C5.77893 5.9924 5.35439 5.84265 4.89484 5.84265C4.07779 5.84265 3.26482 6.35742 2.92773 7.04449L4.24602 9.32763H6.71887C7.20441 9.32763 7.68266 9.20345 8.10353 8.96132C8.24941 8.87753 8.40561 8.77677 8.5749 8.65517C9.28432 8.14556 10.7347 7.08681 10.7358 7.08617C10.9386 6.9405 10.9846 6.65777 10.8385 6.45517Z" fill="black"/>
</g>
<defs>
<clipPath id="clip0_718_101">
<rect width="11" height="11" fill="white"/>
</clipPath>
</defs>
</svg>
