<svg width="11" height="11" viewBox="0 0 11 11" fill="none" xmlns="http://www.w3.org/2000/svg">
<path d="M5.50022 11C8.53302 11 11 8.53269 11 5.5C11 2.46731 8.53302 0 5.50022 0C2.46741 0 0 2.46731 0 5.5C0 8.53269 2.46741 11 5.50022 11ZM4.84884 2.26713V2.11776C4.84884 1.75778 5.14022 1.46641 5.50022 1.46641C5.85978 1.46641 6.15159 1.75778 6.15159 2.11776V2.268C6.92673 2.43431 7.50993 3.12474 7.50993 3.94892C7.50993 4.30846 7.21811 4.60027 6.85855 4.60027C6.49856 4.60027 6.20718 4.30846 6.20718 3.94892C6.20718 3.71921 6.02001 3.53205 5.7903 3.53205H5.20623C4.97651 3.53205 4.78935 3.71921 4.78935 3.94892C4.78935 4.08049 4.85231 4.20555 4.95827 4.28371L5.50022 4.68494L6.81687 5.65936C7.24938 5.97939 7.50993 6.49135 7.5134 7.0298V7.03588C7.51644 7.4953 7.34057 7.92867 7.01749 8.25564C6.77778 8.49838 6.47815 8.66122 6.15159 8.72983V8.88224C6.15159 9.24222 5.85978 9.53359 5.50022 9.53359C5.14022 9.53359 4.84884 9.24222 4.84884 8.88224V8.732C4.53097 8.66426 4.23872 8.50793 4.00249 8.27432C3.6755 7.95168 3.49398 7.52092 3.49137 7.0615C3.4892 6.70196 3.77885 6.40842 4.13841 6.40624H4.14275C4.50057 6.40624 4.79195 6.69544 4.79413 7.05369C4.79499 7.27849 4.97586 7.46795 5.21318 7.46795C5.57309 7.46577 5.43903 7.46656 5.79638 7.46447C6.02757 7.46265 6.21243 7.27502 6.21065 7.04457V7.03849C6.20978 6.90822 6.14682 6.78403 6.04173 6.7063L5.50022 6.3055L4.18314 5.33108C3.74715 5.00801 3.4866 4.49128 3.4866 3.94892C3.4866 3.12301 4.07153 2.43214 4.84884 2.26713Z" fill="black"/>
</svg>
