<svg width="23" height="22" viewBox="0 0 23 22" fill="none" xmlns="http://www.w3.org/2000/svg">
<path fill-rule="evenodd" clip-rule="evenodd" d="M2.68295 7.21603C2.18905 7.21603 1.78863 7.61987 1.78863 8.11799V18.9415C1.78863 19.4396 2.18905 19.8435 2.68295 19.8435H19.3172V15.3337C19.3172 14.8355 19.7176 14.4317 20.2116 14.4317C20.7055 14.4317 21.1059 14.8355 21.1059 15.3337V20.7454C21.1059 21.2436 20.7055 21.6474 20.2116 21.6474H2.68295C1.20122 21.6474 0 20.4359 0 18.9415V8.11799C0 6.62359 1.20122 5.41211 2.68295 5.41211H20.2116C20.7055 5.41211 21.1059 5.81593 21.1059 6.31407V11.7258C21.1059 12.224 20.7055 12.6278 20.2116 12.6278C19.7176 12.6278 19.3172 12.224 19.3172 11.7258V7.21603H2.68295Z" fill="white"/>
<path fill-rule="evenodd" clip-rule="evenodd" d="M17.0467 12.6277C16.5486 12.6277 16.1447 13.0315 16.1447 13.5296C16.1447 14.0277 16.5486 14.4316 17.0467 14.4316H21.1957V12.6277H17.0467ZM14.3408 13.5296C14.3408 12.0352 15.5523 10.8237 17.0467 10.8237H22.0977C22.5958 10.8237 22.9996 11.2276 22.9996 11.7257V15.3335C22.9996 15.8317 22.5958 16.2355 22.0977 16.2355H17.0467C15.5523 16.2355 14.3408 15.024 14.3408 13.5296Z" fill="white"/>
<path fill-rule="evenodd" clip-rule="evenodd" d="M7.37301 9.20707C7.53974 9.02947 7.76588 8.92969 8.00168 8.92969H11.558C12.049 8.92969 12.4471 9.3537 12.4471 9.87675C12.4471 10.3998 12.049 10.8238 11.558 10.8238H8.36995L6.8522 12.4405C6.68547 12.6181 6.45933 12.7179 6.22353 12.7179H0.889076C0.398053 12.7179 0 12.2939 0 11.7709C0 11.2478 0.398053 10.8238 0.889076 10.8238H5.85526L7.37301 9.20707Z" fill="white"/>
<path fill-rule="evenodd" clip-rule="evenodd" d="M0 15.2884C0 14.7653 0.398053 14.3413 0.889076 14.3413H6.22353C6.45933 14.3413 6.68547 14.4411 6.8522 14.6187L8.36995 16.2354H11.558C12.049 16.2354 12.4471 16.6594 12.4471 17.1825C12.4471 17.7055 12.049 18.1295 11.558 18.1295H8.00168C7.76588 18.1295 7.53974 18.0298 7.37301 17.8522L5.85526 16.2354H0.889076C0.398053 16.2354 0 15.8114 0 15.2884Z" fill="white"/>
<path fill-rule="evenodd" clip-rule="evenodd" d="M8.92969 13.5295C8.92969 13.0812 9.32341 12.7178 9.8091 12.7178H11.5679C12.0536 12.7178 12.4473 13.0812 12.4473 13.5295C12.4473 13.9779 12.0536 14.3413 11.5679 14.3413H9.8091C9.32341 14.3413 8.92969 13.9779 8.92969 13.5295Z" fill="white"/>
<path fill-rule="evenodd" clip-rule="evenodd" d="M10.0456 0.267725C10.4003 -0.088916 10.9755 -0.088916 11.3303 0.267725L16.7807 5.74714C17.1354 6.10378 17.1354 6.68201 16.7807 7.03865C16.4259 7.39529 15.8508 7.39529 15.496 7.03865L10.6879 2.20499L5.87984 7.03865C5.52509 7.39529 4.94992 7.39529 4.59517 7.03865C4.24041 6.68201 4.24041 6.10378 4.59517 5.74714L10.0456 0.267725Z" fill="white"/>
</svg>
