<svg width="12" height="12" viewBox="0 0 12 12" fill="none" xmlns="http://www.w3.org/2000/svg">
<path d="M6.25684 2.24142C6.25684 2.37254 6.35849 2.48044 6.48839 2.49841C8.03239 2.71203 9.25784 3.92269 9.49379 5.45943C9.51344 5.58753 9.62059 5.68693 9.75019 5.68693H10.7243C10.8685 5.68693 10.9833 5.56513 10.9668 5.42193C10.6997 3.10303 8.84624 1.26703 6.51924 1.02691C6.37694 1.01222 6.25694 1.12668 6.25694 1.26971L6.25684 2.24142Z" fill="black"/>
<path d="M9.47441 6.65556C9.49765 6.53146 9.60316 6.43696 9.72941 6.43696H10.7087C10.8552 6.43696 10.9709 6.56276 10.9503 6.70786C10.6066 9.13421 8.52125 11.0003 6 11.0003C3.23857 11.0003 1 8.76171 1 6.00031C1 3.49955 2.83588 1.4276 5.23336 1.0587C5.37935 1.03624 5.507 1.15227 5.507 1.29997L5.5069 2.28137C5.5069 2.4061 5.41461 2.5108 5.29236 2.53561C3.67853 2.86318 2.46387 4.28997 2.46387 6.00046C2.46387 7.95306 4.04678 9.53601 5.9994 9.53601C7.7282 9.53601 9.1672 8.29521 9.47441 6.65556Z" fill="black"/>
<path fill-rule="evenodd" clip-rule="evenodd" d="M3.57031 4.65888C3.57031 4.06948 4.04812 3.59167 4.63752 3.59167C5.22691 3.59167 5.70476 4.06948 5.70476 4.65888C5.70476 5.24828 5.22691 5.72608 4.63752 5.72608C4.04812 5.72608 3.57031 5.24828 3.57031 4.65888ZM4.63752 4.34168C4.46233 4.34168 4.32031 4.48369 4.32031 4.65888C4.32031 4.83407 4.46233 4.97609 4.63752 4.97609C4.81272 4.97609 4.95474 4.83407 4.95474 4.65888C4.95474 4.48369 4.81272 4.34168 4.63752 4.34168Z" fill="black"/>
<path d="M7.82116 4.7067C7.96761 4.56025 7.96761 4.32281 7.82116 4.17637C7.67471 4.02992 7.43726 4.02992 7.29086 4.17637L4.17429 7.29289C4.02784 7.43934 4.02784 7.67679 4.17429 7.82324C4.32074 7.96969 4.55817 7.96969 4.70462 7.82324L7.82116 4.7067Z" fill="black"/>
<path fill-rule="evenodd" clip-rule="evenodd" d="M7.36115 6.2738C6.77175 6.2738 6.29395 6.75165 6.29395 7.34105C6.29395 7.93045 6.77175 8.40825 7.36115 8.40825C7.95055 8.40825 8.42835 7.93045 8.42835 7.34105C8.42835 6.75165 7.95055 6.2738 7.36115 6.2738ZM7.04395 7.34105C7.04395 7.16585 7.18595 7.0238 7.36115 7.0238C7.53635 7.0238 7.67835 7.16585 7.67835 7.34105C7.67835 7.5162 7.53635 7.65825 7.36115 7.65825C7.18595 7.65825 7.04395 7.5162 7.04395 7.34105Z" fill="black"/>
</svg>
