<svg width="108" height="108" viewBox="0 0 108 108" fill="none" xmlns="http://www.w3.org/2000/svg">
    <path
        d="M54.4497 88.11C53.072 88.1091 51.7187 87.746 50.5257 87.057L27.1257 73.557C25.3186 72.5106 24.0004 70.7901 23.4605 68.7729C22.9206 66.7557 23.2029 64.6068 24.2457 62.7975L27.6207 56.9475C29.4049 54.4645 31.74 52.4284 34.4429 50.9989C37.1458 49.5694 40.143 48.7853 43.1997 48.708C43.3524 48.6814 43.4974 48.6215 43.6244 48.5326C43.7514 48.4436 43.8572 48.3279 43.9345 48.1935C44.0118 48.0591 44.0586 47.9094 44.0716 47.7549C44.0846 47.6004 44.0634 47.4449 44.0097 47.2995C42.5453 44.6121 41.7239 41.6218 41.6099 38.5635C41.496 35.5051 42.0925 32.462 43.3527 29.673L46.7277 23.823C47.775 22.0182 49.4944 20.7016 51.5098 20.161C53.5253 19.6205 55.6728 19.9 57.4827 20.9385L80.8827 34.4385C82.6897 35.4849 84.0079 37.2055 84.5478 39.2227C85.0878 41.2399 84.8054 43.3888 83.7627 45.198L80.3877 51.048C78.603 53.5331 76.2667 55.5708 73.5621 57.0011C70.8575 58.4315 67.8582 59.2157 64.7997 59.292C64.6467 59.3174 64.5013 59.3763 64.3739 59.4645C64.2464 59.5528 64.1401 59.6682 64.0627 59.8025C63.9852 59.9368 63.9385 60.0866 63.9259 60.2411C63.9132 60.3956 63.935 60.551 63.9897 60.696C65.4547 63.384 66.2765 66.3751 66.3905 69.4343C66.5045 72.4935 65.9076 75.5375 64.6467 78.327L61.2717 84.177C60.5797 85.3737 59.5851 86.3671 58.3876 87.0575C57.19 87.7478 55.8319 88.1109 54.4497 88.11ZM53.5497 26.64C53.3518 26.6397 53.1574 26.6915 52.9859 26.7902C52.8145 26.889 52.6721 27.0312 52.5732 27.2025L49.1982 33.0525C48.5175 34.9507 48.2575 36.9741 48.4362 38.9826C48.6149 40.9912 49.228 42.9369 50.2332 44.685C50.6895 45.7917 50.8855 46.9885 50.8062 48.1829C50.7268 49.3773 50.3742 50.5376 49.7754 51.5742C49.1767 52.6108 48.3479 53.496 47.3529 54.1616C46.3579 54.8272 45.2233 55.2553 44.0367 55.413C42.0208 55.4172 40.03 55.8592 38.2018 56.7084C36.3736 57.5576 34.7516 58.7938 33.4482 60.3315L30.0732 66.1815C29.9989 66.3094 29.9505 66.4507 29.9309 66.5974C29.9112 66.744 29.9207 66.893 29.9587 67.036C29.9968 67.1789 30.0626 67.313 30.1525 67.4304C30.2424 67.5479 30.3546 67.6465 30.4827 67.7205L53.8827 81.2205C54.1417 81.3664 54.4476 81.4048 54.7346 81.3274C55.0216 81.2499 55.2667 81.0629 55.4172 80.8065L58.7922 74.9565C59.4729 73.0584 59.7329 71.035 59.5542 69.0264C59.3755 67.0179 58.7623 65.0722 57.7572 63.324C57.2998 62.2177 57.103 61.021 57.1819 59.8265C57.2609 58.632 57.6134 57.4716 58.2124 56.435C58.8113 55.3985 59.6406 54.5136 60.6362 53.8487C61.6317 53.1838 62.7668 52.7568 63.9537 52.6005C65.9695 52.5937 67.9599 52.1501 69.7878 51.3002C71.6157 50.4504 73.2377 49.2144 74.5422 47.6775L77.9172 41.8275C77.9915 41.6996 78.0398 41.5583 78.0595 41.4117C78.0791 41.2651 78.0696 41.1161 78.0316 40.9731C77.9936 40.8302 77.9277 40.6961 77.8378 40.5787C77.7479 40.4612 77.6357 40.3626 77.5077 40.2885L54.1077 26.7885C53.9375 26.6919 53.7453 26.6408 53.5497 26.64Z"
        fill="white" />
    <path
        d="M98.9998 57.375C98.1047 57.375 97.2463 57.0194 96.6133 56.3865C95.9804 55.7536 95.6248 54.8951 95.6248 54C95.6253 45.767 93.1843 37.7188 88.6105 30.8732C84.0367 24.0275 77.5356 18.692 69.9294 15.5413C62.3231 12.3906 53.9533 11.5663 45.8786 13.1726C37.8038 14.7789 30.3867 18.7437 24.5653 24.5655C23.1699 25.9629 21.8738 27.456 20.6863 29.034C20.1493 29.7501 19.3497 30.2235 18.4636 30.3501C17.5775 30.4767 16.6774 30.2461 15.9613 29.709C15.2453 29.1719 14.7718 28.3724 14.6453 27.4863C14.5187 26.6002 14.7493 25.7001 15.2863 24.984C16.6675 23.1591 18.1709 21.4302 19.7863 19.809C26.5504 13.0421 35.1692 8.43295 44.5529 6.56448C53.9365 4.69601 63.6635 5.65212 72.5037 9.31191C81.3439 12.9717 88.9004 19.1708 94.2174 27.1252C99.5344 35.0796 102.373 44.4322 102.375 54C102.375 54.8951 102.019 55.7536 101.386 56.3865C100.753 57.0194 99.8949 57.375 98.9998 57.375Z"
        fill="white" />
    <path
        d="M54 102.375C47.647 102.376 41.356 101.126 35.4863 98.6951C29.6166 96.2644 24.2833 92.7012 19.7911 88.2089C15.2988 83.7167 11.7356 78.3834 9.30492 72.5137C6.87427 66.6441 5.62382 60.353 5.625 54C5.625 53.1049 5.98058 52.2465 6.61352 51.6135C7.24645 50.9806 8.1049 50.625 9 50.625C9.89511 50.625 10.7536 50.9806 11.3865 51.6135C12.0194 52.2465 12.375 53.1049 12.375 54C12.3745 62.233 14.8155 70.2812 19.3893 77.1268C23.9631 83.9725 30.4642 89.308 38.0705 92.4587C45.6768 95.6094 54.0465 96.4337 62.1213 94.8274C70.1961 93.2211 77.6131 89.2563 83.4345 83.4345C84.8293 82.0394 86.124 80.5477 87.309 78.9705C87.8637 78.3053 88.6527 77.8785 89.513 77.7782C90.3732 77.6779 91.2392 77.9117 91.9321 78.4314C92.625 78.951 93.0919 79.7169 93.2365 80.5709C93.3811 81.4248 93.1922 82.3017 92.709 83.0205C91.3296 84.8482 89.8261 86.5788 88.209 88.2C83.727 92.7067 78.3958 96.28 72.5239 98.7131C66.6521 101.146 60.356 102.391 54 102.375Z"
        fill="white" />
    <path
        d="M92.1827 95.5575C91.2875 95.5575 90.4291 95.202 89.7962 94.569C89.1632 93.9361 88.8077 93.0777 88.8077 92.1825V82.8315H79.4521C78.557 82.8315 77.6986 82.476 77.0657 81.843C76.4327 81.2101 76.0771 80.3516 76.0771 79.4565C76.0771 78.5614 76.4327 77.703 77.0657 77.0701C77.6986 76.4371 78.557 76.0815 79.4521 76.0815H92.1827C93.0778 76.0815 93.9362 76.4371 94.5691 77.0701C95.2021 77.703 95.5577 78.5614 95.5577 79.4565V92.1825C95.5577 93.0777 95.2021 93.9361 94.5691 94.569C93.9362 95.202 93.0778 95.5575 92.1827 95.5575Z"
        fill="white" />
    <path
        d="M28.5434 31.9185H15.8174C14.9223 31.9185 14.0638 31.5629 13.4309 30.93C12.798 30.2971 12.4424 29.4386 12.4424 28.5435V15.8175C12.4424 14.9224 12.798 14.064 13.4309 13.431C14.0638 12.7981 14.9223 12.4425 15.8174 12.4425C16.7125 12.4425 17.5709 12.7981 18.2039 13.431C18.8368 14.064 19.1924 14.9224 19.1924 15.8175V25.1685H28.5434C29.4385 25.1685 30.2969 25.5241 30.9299 26.157C31.5628 26.79 31.9184 27.6484 31.9184 28.5435C31.9184 29.4386 31.5628 30.2971 30.9299 30.93C30.2969 31.5629 29.4385 31.9185 28.5434 31.9185Z"
        fill="white" />
</svg>