<svg width="11" height="11" viewBox="0 0 11 11" fill="none" xmlns="http://www.w3.org/2000/svg">
<g clip-path="url(#clip0_718_72)">
<path d="M4.39165 0.000366211H1.89355V1.52369L4.39165 1.10735V0.000366211Z" fill="black"/>
<path d="M9.89166 10.3551V3.14303H5.82227V10.3551H5.17773V2.4985V1.62988L1.10834 2.3081V10.3551H0V10.9996H11V10.3551H9.89166ZM8.30032 4.0698H8.98492V4.71433H8.30032V4.0698ZM8.30032 5.64112H8.98492V6.28565H8.30032V5.64112ZM8.30032 7.21243H8.98492V7.85696H8.30032V7.21243ZM8.30032 8.78375H8.98492V9.42828H8.30032V8.78375ZM6.72901 4.0698H7.41361V4.71433H6.72901V4.0698ZM6.72901 5.64112H7.41361V6.28565H6.72901V5.64112ZM6.72901 7.21243H7.41361V7.85696H6.72901V7.21243ZM6.72901 8.78375H7.41361V9.42828H6.72901V8.78375ZM3.58639 2.4985H4.27099V3.14303H3.58639V2.4985ZM3.58639 4.0698H4.27099V4.71433H3.58639V4.0698ZM3.58639 5.64112H4.27099V6.28565H3.58639V5.64112ZM3.58639 7.21243H4.27099V7.85696H3.58639V7.21243ZM2.01508 4.0698H2.69968V4.71433H2.01508V4.0698ZM2.01508 5.64112H2.69968V6.28565H2.01508V5.64112ZM2.01508 7.21243H2.69968V7.85696H2.01508V7.21243ZM2.03511 8.78375H4.25096V10.3551H3.60643V9.42828H2.67964V10.3551H2.03511V8.78375Z" fill="black"/>
</g>
<defs>
<clipPath id="clip0_718_72">
<rect width="11" height="11" fill="white"/>
</clipPath>
</defs>
</svg>
